<?xml version="1.0" encoding="UTF-8" standalone="no"?><!DOCTYPE svg PUBLIC "-//W3C//DTD SVG 1.1//EN" "http://www.w3.org/Graphics/SVG/1.1/DTD/svg11.dtd"><svg width="100%" height="100%" viewBox="0 0 47 47" version="1.1" xmlns="http://www.w3.org/2000/svg" xmlns:xlink="http://www.w3.org/1999/xlink" xml:space="preserve" xmlns:serif="http://www.serif.com/" style="fill-rule:evenodd;clip-rule:evenodd;stroke-linejoin:round;stroke-miterlimit:2;"><g id="logo"><rect x="0" y="0" width="46.08" height="46.08" style="fill:#0a97b2;"/><path d="M24.25,10.591c-0.805,-0.078 -1.615,-0.078 -2.42,0l-0.398,1.94c-0.771,0.118 -1.527,0.321 -2.254,0.604l-1.315,-1.481c-0.736,0.335 -1.437,0.74 -2.095,1.21l0.625,1.879c-0.609,0.488 -1.162,1.041 -1.65,1.65l-1.879,-0.625c-0.47,0.658 -0.875,1.359 -1.21,2.095l1.481,1.315c-0.283,0.727 -0.486,1.483 -0.604,2.254l-1.94,0.398c-0.078,0.805 -0.078,1.615 0,2.42l1.94,0.398c0.118,0.771 0.321,1.527 0.604,2.254l-1.481,1.315c0.335,0.736 0.74,1.437 1.21,2.095l1.879,-0.625c0.488,0.609 1.041,1.162 1.65,1.65l-0.625,1.879c0.658,0.47 1.359,0.875 2.095,1.21l1.315,-1.481c0.727,0.283 1.483,0.486 2.254,0.604l0.398,1.94c0.805,0.078 1.615,0.078 2.42,0l0.398,-1.94c0.771,-0.118 1.527,-0.321 2.254,-0.604l1.315,1.481c0.736,-0.335 1.437,-0.74 2.095,-1.21l-0.625,-1.879c0.609,-0.488 1.162,-1.041 1.65,-1.65l1.879,0.625c0.47,-0.658 0.875,-1.359 1.21,-2.095l-1.481,-1.315c0.283,-0.727 0.486,-1.483 0.604,-2.254l1.94,-0.398c0.078,-0.805 0.078,-1.615 0,-2.42l-1.94,-0.398c-0.118,-0.771 -0.321,-1.527 -0.604,-2.254l1.481,-1.315c-0.335,-0.736 -0.74,-1.437 -1.21,-2.095l-1.879,0.625c-0.488,-0.609 -1.041,-1.162 -1.65,-1.65l0.625,-1.879c-0.658,-0.47 -1.359,-0.875 -2.095,-1.21l-1.315,1.481c-0.727,-0.283 -1.483,-0.486 -2.254,-0.604l-0.398,-1.94Zm-1.21,5.923c3.602,0 6.526,2.924 6.526,6.526c0,3.602 -2.924,6.526 -6.526,6.526c-3.602,0 -6.526,-2.924 -6.526,-6.526c0,-3.602 2.924,-6.526 6.526,-6.526Z" style="fill:#fff;"/></g></svg>